<svg width="24" height="24" viewBox="0 0 24 24" fill="none" xmlns="http://www.w3.org/2000/svg">
<path fill-rule="evenodd" clip-rule="evenodd" d="M18.25 0.75C21.0114 0.75 23.25 2.9875 23.25 5.75C23.25 7.59167 21.5833 13.425 18.25 23.25H15.75C17.4167 14.9167 18.25 10.75 18.25 10.75C15.4886 10.75 13.25 8.51142 13.25 5.75C13.25 2.98858 15.4886 0.75 18.25 0.75ZM5.75 0.75C8.51142 0.75 10.75 2.9875 10.75 5.75C10.75 7.59167 9.08333 13.425 5.75 23.25H3.25C4.91667 14.9167 5.75 10.75 5.75 10.75C2.98858 10.75 0.75 8.51142 0.75 5.75C0.75 2.98858 2.98858 0.75 5.75 0.75Z" fill="#181818"/>
</svg>
