<svg width="65" height="65" viewBox="0 0 65 65" fill="none" xmlns="http://www.w3.org/2000/svg">
<path d="M26.7871 21.2014C26.7871 24.3515 29.3499 26.9143 32.5 26.9143C35.6501 26.9143 38.2129 24.3515 38.2129 21.2014C38.2129 18.0513 35.6501 15.4885 32.5 15.4885C29.3499 15.4885 26.7871 18.0513 26.7871 21.2014ZM34.4043 21.2014C34.4043 22.2514 33.55 23.1057 32.5 23.1057C31.45 23.1057 30.5957 22.2514 30.5957 21.2014C30.5957 20.1514 31.45 19.2971 32.5 19.2971C33.55 19.2971 34.4043 20.1514 34.4043 21.2014Z" fill="#ED6436"/>
<path d="M26.7872 28.8184C26.7872 25.6683 24.2244 23.1055 21.0743 23.1055C17.9243 23.1055 15.3615 25.6683 15.3615 28.8184C15.3615 31.9684 17.9243 34.5313 21.0743 34.5313C24.2244 34.5313 26.7872 31.9684 26.7872 28.8184ZM21.0743 30.7227C20.0243 30.7227 19.17 29.8684 19.17 28.8184C19.17 27.7683 20.0243 26.9141 21.0743 26.9141C22.1244 26.9141 22.9786 27.7683 22.9786 28.8184C22.9786 29.8684 22.1244 30.7227 21.0743 30.7227Z" fill="#ED6436"/>
<path d="M43.9257 34.5313C47.0757 34.5313 49.6385 31.9684 49.6385 28.8184C49.6385 25.6683 47.0757 23.1055 43.9257 23.1055C40.7756 23.1055 38.2128 25.6683 38.2128 28.8184C38.2128 31.9684 40.7754 34.5313 43.9257 34.5313ZM43.9257 26.9141C44.9757 26.9141 45.83 27.7683 45.83 28.8184C45.83 29.8684 44.9757 30.7227 43.9257 30.7227C42.8756 30.7227 42.0214 29.8684 42.0214 28.8184C42.0214 27.7683 42.8755 26.9141 43.9257 26.9141Z" fill="#ED6436"/>
<path d="M32.4999 30.7227C29.9854 30.7227 27.5171 32.2838 25.5494 35.1186C23.9877 37.3687 22.9785 40.128 22.9785 42.1483C22.9785 44.2573 24.0694 46.285 25.9713 47.7114C27.7373 49.036 30.056 49.7655 32.4999 49.7655C34.9439 49.7655 37.2625 49.036 39.0286 47.7114C40.9304 46.285 42.0213 44.2573 42.0213 42.1483C42.0213 40.128 41.0122 37.3687 39.4504 35.1186C37.4828 32.2838 35.0143 30.7227 32.4999 30.7227ZM32.4999 45.9569C29.4032 45.9569 26.7871 44.2128 26.7871 42.1483C26.7871 39.754 29.6549 34.5312 32.4999 34.5312C35.3449 34.5312 38.2128 39.754 38.2128 42.1483C38.2128 44.2127 35.5965 45.9569 32.4999 45.9569Z" fill="#ED6436"/>
<path d="M64.1113 19.5905L33.5158 0.293789C32.8952 -0.0976042 32.1048 -0.0976042 31.4841 0.293789L0.888642 19.5905C-0.000911362 20.1515 -0.26713 21.3276 0.293745 22.217C0.854873 23.1067 2.03096 23.3728 2.92026 22.8119L7.74418 19.7694V59.2868C7.74418 60.3385 8.5968 61.1911 9.64847 61.1911H16.0887L15.5624 62.2438C15.2672 62.834 15.2987 63.5351 15.6457 64.0965C15.9926 64.6579 16.6057 64.9996 17.2656 64.9996H47.7341C48.394 64.9996 49.0069 64.6579 49.354 64.0965C49.701 63.5351 49.7325 62.834 49.4373 62.2438L48.9109 61.1911H55.3512C56.4029 61.1911 57.2555 60.3385 57.2555 59.2868V19.7694L62.0796 22.8119C62.9673 23.3719 64.1439 23.1084 64.7061 22.217C65.2671 21.3276 65.0009 20.1516 64.1113 19.5905ZM20.3468 61.1912L22.2511 57.3826H42.7487L44.653 61.1912H20.3468ZM53.4471 57.3826H47.0068L45.6289 54.6268C45.3064 53.9816 44.647 53.5741 43.9257 53.5741H21.0743C20.3529 53.5741 19.6936 53.9816 19.3711 54.6268L17.9932 57.3826H11.5529V17.3673L32.5 4.15593L53.4471 17.3673V57.3826Z" fill="white"/>
</svg>
