<svg width="65" height="65" viewBox="0 0 65 65" fill="none" xmlns="http://www.w3.org/2000/svg">
<g clip-path="url(#clip0_1078_25)">
<path d="M28.6914 19.0427C25.5413 19.0427 22.9785 16.4799 22.9785 13.3298C22.9785 10.1797 25.5413 7.61694 28.6914 7.61694C31.8415 7.61694 34.4043 10.1797 34.4043 13.3298C34.4043 16.4799 31.8415 19.0427 28.6914 19.0427ZM28.6914 11.4255C27.6414 11.4255 26.7871 12.2798 26.7871 13.3298C26.7871 14.3799 27.6414 15.2341 28.6914 15.2341C29.7414 15.2341 30.5957 14.3799 30.5957 13.3298C30.5957 12.2798 29.7414 11.4255 28.6914 11.4255Z" fill="#ED6436"/>
<path d="M17.2654 26.6599C14.1153 26.6599 11.5525 24.0971 11.5525 20.947C11.5525 17.7969 14.1153 15.2341 17.2654 15.2341C20.4155 15.2341 22.9783 17.7969 22.9783 20.947C22.9783 24.0971 20.4155 26.6599 17.2654 26.6599ZM17.2654 19.0427C16.2154 19.0427 15.3611 19.897 15.3611 20.947C15.3611 21.9971 16.2154 22.8513 17.2654 22.8513C18.3154 22.8513 19.1697 21.9971 19.1697 20.947C19.1697 19.897 18.3154 19.0427 17.2654 19.0427Z" fill="#ED6436"/>
<path d="M40.1172 26.6599C36.9671 26.6599 34.4043 24.0971 34.4043 20.947C34.4043 17.7969 36.9671 15.2341 40.1172 15.2341C43.2673 15.2341 45.8301 17.7969 45.8301 20.947C45.8301 24.0971 43.2673 26.6599 40.1172 26.6599ZM40.1172 19.0427C39.0672 19.0427 38.2129 19.897 38.2129 20.947C38.2129 21.9971 39.0672 22.8513 40.1172 22.8513C41.1672 22.8513 42.0215 21.9971 42.0215 20.947C42.0215 19.897 41.1672 19.0427 40.1172 19.0427Z" fill="#ED6436"/>
<path d="M28.6914 41.8943C26.2474 41.8943 23.9288 41.1648 22.1627 39.8402C20.2608 38.4137 19.1699 36.386 19.1699 34.2771C19.1699 32.2568 20.1791 29.4974 21.7409 27.2473C23.7085 24.4125 26.1768 22.8513 28.6914 22.8513C31.206 22.8513 33.6743 24.4125 35.642 27.2473C37.2037 29.4974 38.2129 32.2568 38.2129 34.2771C38.2129 36.386 37.1221 38.4137 35.2201 39.8402C33.4541 41.1647 31.1354 41.8943 28.6914 41.8943ZM28.6914 26.6599C25.8464 26.6599 22.9785 31.8828 22.9785 34.2771C22.9785 36.3416 25.5946 38.0857 28.6914 38.0857C31.7882 38.0857 34.4043 36.3416 34.4043 34.2771C34.4043 31.8826 31.5364 26.6599 28.6914 26.6599Z" fill="#ED6436"/>
<path d="M36.3085 64.9999H13.4569C12.4052 64.9999 11.5526 64.1473 11.5526 63.0956L11.5524 46.2446C11.5524 44.0997 10.7525 41.952 9.23935 40.0335C4.80905 34.4162 2.90144 27.0736 4.48697 19.4695C6.42035 10.1982 13.7889 2.68017 23.0435 0.626446C35.1986 -2.07094 46.4309 4.21162 51.138 14.3021L60.8182 31.4361C61.0748 31.8903 61.1338 32.4301 60.9815 32.929C60.8291 33.428 60.4786 33.8426 60.0118 34.0761L53.4473 37.3583V47.6072C53.4473 50.7573 50.8845 53.3201 47.7344 53.3201H40.1171C39.0671 53.3201 38.2128 54.1743 38.2128 55.2244V63.0955C38.2128 64.1473 37.3602 64.9999 36.3085 64.9999ZM15.3612 61.1913H34.4042V55.2245C34.4042 52.0744 36.967 49.5116 40.1171 49.5116H47.7344C48.7844 49.5116 49.6387 48.6573 49.6387 47.6073V36.1815C49.6387 35.4601 50.0462 34.8008 50.6914 34.4781L56.5169 31.5654C47.2102 15.088 47.7768 16.1068 47.7145 15.9726C43.5354 6.93756 33.729 2.15611 23.8687 4.34454C16.1314 6.06171 9.84086 12.4523 8.21534 20.2469C6.90315 26.5395 8.32884 32.7288 12.2297 37.6748C14.2781 40.272 15.3609 43.2353 15.3609 46.2444L15.3612 61.1913Z" fill="white"/>
</g>
<defs>
<clipPath id="clip0_1078_25">
<rect width="65" height="65" fill="white"/>
</clipPath>
</defs>
</svg>
