<svg width="65" height="65" viewBox="0 0 65 65" fill="none" xmlns="http://www.w3.org/2000/svg">
<path d="M47.8613 42.1484C51.0114 42.1484 53.5742 39.5856 53.5742 36.4355C53.5742 33.2855 51.0114 30.7227 47.8613 30.7227C44.7112 30.7227 42.1484 33.2855 42.1484 36.4355C42.1484 39.5856 44.7112 42.1484 47.8613 42.1484ZM47.8613 34.5312C48.9114 34.5312 49.7656 35.3855 49.7656 36.4355C49.7656 37.4856 48.9114 38.3398 47.8613 38.3398C46.8113 38.3398 45.957 37.4856 45.957 36.4355C45.957 35.3855 46.8113 34.5312 47.8613 34.5312Z" fill="#ED6436"/>
<path d="M30.7227 44.0527C30.7227 47.2028 33.2855 49.7656 36.4355 49.7656C39.5856 49.7656 42.1484 47.2028 42.1484 44.0527C42.1484 40.9026 39.5856 38.3398 36.4355 38.3398C33.2855 38.3398 30.7227 40.9026 30.7227 44.0527ZM36.4355 42.1484C37.4856 42.1484 38.3398 43.0027 38.3398 44.0527C38.3398 45.1028 37.4856 45.957 36.4355 45.957C35.3855 45.957 34.5312 45.1028 34.5312 44.0527C34.5312 43.0027 35.3855 42.1484 36.4355 42.1484Z" fill="#ED6436"/>
<path d="M59.2871 38.3398C56.137 38.3398 53.5742 40.9026 53.5742 44.0527C53.5742 47.2028 56.137 49.7656 59.2871 49.7656C62.4372 49.7656 65 47.2028 65 44.0527C65 40.9026 62.4372 38.3398 59.2871 38.3398ZM59.2871 45.957C58.2371 45.957 57.3828 45.1028 57.3828 44.0527C57.3828 43.0027 58.2371 42.1484 59.2871 42.1484C60.3371 42.1484 61.1914 43.0027 61.1914 44.0527C61.1914 45.1028 60.3371 45.957 59.2871 45.957Z" fill="#ED6436"/>
<path d="M47.8613 45.957C45.3468 45.957 42.8784 47.5182 40.9108 50.353C39.349 52.6032 38.3398 55.3625 38.3398 57.3828H28.5645C23.3143 57.3828 19.043 53.1115 19.043 47.8613V45.6295C21.2594 44.8434 22.8516 42.7267 22.8516 40.2441V38.0136C25.0683 37.2276 26.6602 35.1096 26.6602 32.627C26.6602 32.3096 26.633 31.9984 26.5828 31.695C31.365 28.5378 34.2773 23.1934 34.2773 17.3926V9.52148C34.2773 6.3714 31.7145 3.80859 28.5645 3.80859H26.6602V1.9043C26.6602 0.852617 25.8075 0 24.7559 0C23.7042 0 22.8516 0.852617 22.8516 1.9043V9.52148C22.8516 10.5732 23.7042 11.4258 24.7559 11.4258C25.8075 11.4258 26.6602 10.5732 26.6602 9.52148V7.61719H28.5645C29.6145 7.61719 30.4688 8.47145 30.4688 9.52148V17.3926C30.4688 21.8038 28.3031 25.8757 24.7298 28.3508C23.7214 27.4578 22.3969 26.9141 20.9473 26.9141H13.3301C11.8804 26.9141 10.5559 27.4578 9.54751 28.3508C5.97429 25.8757 3.80859 21.8038 3.80859 17.3926V9.52148C3.80859 8.47145 4.66286 7.61719 5.71289 7.61719H7.61719V9.52148C7.61719 10.5732 8.4698 11.4258 9.52148 11.4258C10.5732 11.4258 11.4258 10.5732 11.4258 9.52148V1.9043C11.4258 0.852617 10.5732 0 9.52148 0C8.4698 0 7.61719 0.852617 7.61719 1.9043V3.80859H5.71289C2.5628 3.80859 0 6.3714 0 9.52148V17.3926C0 23.1934 2.9123 28.5378 7.6945 31.695C7.64436 31.9984 7.61719 32.3096 7.61719 32.627C7.61719 35.1096 9.20905 37.2276 11.4258 38.0136V40.2441C11.4258 42.7267 13.0179 44.8434 15.2344 45.6295V47.8613C15.2344 55.2115 21.2142 61.1914 28.5645 61.1914H39.6063C40.0682 61.8379 40.6467 62.4315 41.3326 62.9459C43.0987 64.2705 45.4174 65 47.8613 65C50.3053 65 52.624 64.2705 54.39 62.9459C56.2919 61.5195 57.3828 59.4918 57.3828 57.3828C57.3828 55.3625 56.3737 52.6032 54.8119 50.353C52.8442 47.5182 50.3759 45.957 47.8613 45.957ZM13.3301 34.5312C12.28 34.5312 11.4258 33.677 11.4258 32.627C11.4258 31.5769 12.28 30.7227 13.3301 30.7227H20.9473C21.9973 30.7227 22.8516 31.5769 22.8516 32.627C22.8516 33.677 21.9973 34.5312 20.9473 34.5312C19.8956 34.5312 19.043 35.3839 19.043 36.4355V40.2441C19.043 41.2942 18.1887 42.1484 17.1387 42.1484C16.0886 42.1484 15.2344 41.2942 15.2344 40.2441V36.4355C15.2344 35.3839 14.3818 34.5312 13.3301 34.5312ZM47.8613 61.1914C45.3491 61.1914 43.1534 60.0435 42.4139 58.5079C42.412 58.5036 42.4097 58.4994 42.4077 58.4949C42.2396 58.1415 42.1484 57.7677 42.1484 57.3828C42.1484 54.9885 45.0163 49.7656 47.8613 49.7656C50.7063 49.7656 53.5742 54.9885 53.5742 57.3828C53.5742 59.4473 50.9581 61.1914 47.8613 61.1914Z" fill="white"/>
</svg>
