<svg width="65" height="65" viewBox="0 0 65 65" fill="none" xmlns="http://www.w3.org/2000/svg">
<g clip-path="url(#clip0_1078_3)">
<path d="M55.4785 2.03125C50.2375 2.03125 45.957 6.30208 45.957 11.5527C45.957 16.8029 50.2284 21.0742 55.4785 21.0742C60.7195 21.0742 65 16.8034 65 11.5527C65 6.30259 60.7287 2.03125 55.4785 2.03125ZM61.1914 11.5527C61.1914 12.4335 60.9907 13.2684 60.6331 14.0142L53.0169 6.39818C53.7627 6.04056 54.5976 5.83984 55.4785 5.83984C58.6286 5.83984 61.1914 8.40265 61.1914 11.5527ZM49.7656 11.5527C49.7656 10.6719 49.9663 9.83709 50.324 9.09124L57.9401 16.7073C57.1943 17.0649 56.3594 17.2656 55.4785 17.2656C52.3284 17.2656 49.7656 14.7028 49.7656 11.5527Z" fill="#ED6436"/>
<path d="M63.0957 32.5H61.1914V30.5957C61.1914 29.544 60.3388 28.6914 59.2871 28.6914C58.2354 28.6914 57.3828 29.544 57.3828 30.5957V32.5H43.7988H38.0859V28.6914H39.9902C41.0419 28.6914 41.8945 27.8388 41.8945 26.7871C41.8945 25.7354 41.0419 24.8828 39.9902 24.8828H17.1387C16.087 24.8828 15.2344 25.7354 15.2344 26.7871C15.2344 27.8388 16.087 28.6914 17.1387 28.6914H19.043V32.5H17.1387C14.6558 32.5 12.538 34.0919 11.7521 36.3086H5.71289C2.5628 36.3086 0 38.8714 0 42.0215V49.6387C0 56.9889 5.97987 62.9688 13.3301 62.9688H43.7988C51.149 62.9688 57.1289 56.9889 57.1289 49.6387V36.3086H63.0957C64.1474 36.3086 65 35.456 65 34.4043C65 33.3526 64.1474 32.5 63.0957 32.5ZM22.8516 28.6914H34.2773V32.5H22.8516V28.6914ZM3.80859 42.0215C3.80859 40.9715 4.66286 40.1172 5.71289 40.1172H13.3301C14.3818 40.1172 15.2344 39.2646 15.2344 38.2129C15.2344 37.1629 16.0886 36.3086 17.1387 36.3086H40.7175L38.8133 40.1172H20.9473C19.8956 40.1172 19.043 40.9698 19.043 42.0215V45.8301C19.043 46.8801 18.1887 47.7344 17.1387 47.7344H3.80859V42.0215ZM53.3203 49.6387C53.3203 54.8888 49.049 59.1602 43.7988 59.1602H13.3301C8.73184 59.1602 4.8849 55.8838 4.00017 51.543H17.1387C20.2888 51.543 22.8516 48.9802 22.8516 45.8301V43.9258H26.6602V45.8301C26.6602 46.8818 27.5128 47.7344 28.5645 47.7344C29.6161 47.7344 30.4688 46.8818 30.4688 45.8301V43.9258H39.9902C40.7116 43.9258 41.371 43.5183 41.6934 42.8731L44.9757 36.3086H53.3203V49.6387Z" fill="white"/>
</g>
<defs>
<clipPath id="clip0_1078_3">
<rect width="65" height="65" fill="white"/>
</clipPath>
</defs>
</svg>
