<svg width="65" height="65" viewBox="0 0 65 65" fill="none" xmlns="http://www.w3.org/2000/svg">
<g clip-path="url(#clip0_1108_799)">
<path d="M28.6914 19.0428C25.5413 19.0428 22.9785 16.48 22.9785 13.3299C22.9785 10.1798 25.5413 7.61697 28.6914 7.61697C31.8415 7.61697 34.4043 10.1798 34.4043 13.3299C34.4043 16.48 31.8415 19.0428 28.6914 19.0428ZM28.6914 11.4256C27.6414 11.4256 26.7871 12.2798 26.7871 13.3299C26.7871 14.3799 27.6414 15.2342 28.6914 15.2342C29.7414 15.2342 30.5957 14.3799 30.5957 13.3299C30.5957 12.2798 29.7414 11.4256 28.6914 11.4256Z" fill="#ED6436"/>
<path d="M17.2656 26.66C14.1155 26.66 11.5527 24.0972 11.5527 20.9471C11.5527 17.797 14.1155 15.2342 17.2656 15.2342C20.4157 15.2342 22.9785 17.797 22.9785 20.9471C22.9785 24.0972 20.4157 26.66 17.2656 26.66ZM17.2656 19.0428C16.2156 19.0428 15.3613 19.8971 15.3613 20.9471C15.3613 21.9971 16.2156 22.8514 17.2656 22.8514C18.3157 22.8514 19.1699 21.9971 19.1699 20.9471C19.1699 19.8971 18.3157 19.0428 17.2656 19.0428Z" fill="#ED6436"/>
<path d="M40.1172 26.66C36.9671 26.66 34.4043 24.0972 34.4043 20.9471C34.4043 17.797 36.9671 15.2342 40.1172 15.2342C43.2673 15.2342 45.8301 17.797 45.8301 20.9471C45.8301 24.0972 43.2673 26.66 40.1172 26.66ZM40.1172 19.0428C39.0672 19.0428 38.2129 19.8971 38.2129 20.9471C38.2129 21.9971 39.0672 22.8514 40.1172 22.8514C41.1672 22.8514 42.0215 21.9971 42.0215 20.9471C42.0215 19.8971 41.1672 19.0428 40.1172 19.0428Z" fill="#ED6436"/>
<path d="M28.6914 41.8944C26.2474 41.8944 23.9288 41.1649 22.1627 39.8403C20.2608 38.4138 19.1699 36.3861 19.1699 34.2772C19.1699 32.2569 20.1791 29.4975 21.7409 27.2474C23.7085 24.4126 26.1768 22.8514 28.6914 22.8514C31.206 22.8514 33.6743 24.4126 35.642 27.2474C37.2037 29.4975 38.2129 32.2569 38.2129 34.2772C38.2129 36.3861 37.1221 38.4138 35.2201 39.8403C33.4541 41.1648 31.1354 41.8944 28.6914 41.8944ZM28.6914 26.66C25.8464 26.66 22.9785 31.8829 22.9785 34.2772C22.9785 36.3417 25.5946 38.0858 28.6914 38.0858C31.7882 38.0858 34.4043 36.3417 34.4043 34.2772C34.4043 31.8827 31.5364 26.66 28.6914 26.66Z" fill="#ED6436"/>
<path d="M36.3088 65H13.4571C12.4054 65 11.5528 64.1474 11.5528 63.0957L11.5527 46.2446C11.5527 44.0998 10.7528 41.9521 9.23959 40.0336C4.80929 34.4162 2.90169 27.0736 4.48721 19.4696C6.42059 10.1983 13.7891 2.68025 23.0438 0.626522C35.1988 -2.07086 46.4312 4.21169 51.1382 14.3022L60.8184 31.4361C61.075 31.8904 61.134 32.4302 60.9817 32.9291C60.8294 33.428 60.4788 33.8427 60.012 34.0761L53.4475 37.3584V47.6072C53.4475 50.7573 50.8847 53.3202 47.7346 53.3202H40.1174C39.0673 53.3202 38.2131 54.1744 38.2131 55.2245V63.0956C38.2131 64.1474 37.3605 65 36.3088 65ZM15.3614 61.1914H34.4045V55.2246C34.4045 52.0745 36.9673 49.5117 40.1174 49.5117H47.7346C48.7846 49.5117 49.6389 48.6574 49.6389 47.6074V36.1815C49.6389 35.4602 50.0464 34.8009 50.6916 34.4782L56.5171 31.5655C47.2104 15.0881 47.777 16.1069 47.7148 15.9727C43.5356 6.93764 33.7292 2.15619 23.869 4.34461C16.1317 6.06179 9.8411 12.4524 8.21559 20.247C6.90339 26.5395 8.32908 32.7289 12.23 37.6749C14.2784 40.2721 15.3612 43.2353 15.3612 46.2445L15.3614 61.1914Z" fill="#181818"/>
</g>
<defs>
<clipPath id="clip0_1108_799">
<rect width="65" height="65" fill="white"/>
</clipPath>
</defs>
</svg>
