<svg width="60" height="48" viewBox="0 0 60 48" fill="none" xmlns="http://www.w3.org/2000/svg">
<path d="M46.2547 0.257337C38.6632 0.247028 32.5006 6.39277 32.4902 13.9843C32.4799 21.5758 38.6257 27.7384 46.2172 27.7487C50.6995 27.7548 54.9033 25.5749 57.4811 21.908C57.2496 34.8496 46.7021 45.2249 33.7585 45.2432C33.0684 45.2432 32.5089 45.8027 32.5089 46.4928C32.5089 47.183 33.0684 47.7425 33.7585 47.7425C48.2446 47.726 59.9838 35.9867 60.0003 21.5007V14.003C59.9921 6.41491 53.8429 0.265655 46.2547 0.257337Z" fill="#ED6436"/>
<path d="M13.7644 0.257337C6.17293 0.247028 0.0103222 6.39277 1.29512e-05 13.9844C-0.0102963 21.576 6.13544 27.7384 13.727 27.7488C18.2094 27.7549 22.4132 25.5751 24.991 21.9081C24.7595 34.8497 14.2119 45.225 1.26841 45.2433C0.57827 45.2433 0.0187571 45.8028 0.0187571 46.4929C0.0187571 47.1831 0.57827 47.7426 1.26841 47.7426C15.7545 47.7261 27.4937 35.9868 27.5102 21.5008V14.0031C27.5019 6.41491 21.3525 0.265655 13.7644 0.257337Z" fill="#ED6436"/>
</svg>
