<svg width="30" height="30" viewBox="0 0 30 30" fill="none" xmlns="http://www.w3.org/2000/svg">
<path d="M29.1211 27.3047H21.1523V11.4844H24.668V16.909C23.645 17.2718 22.9102 18.2487 22.9102 19.3945C22.9102 20.8484 24.093 22.0312 25.5469 22.0312C27.0008 22.0312 28.1836 20.8484 28.1836 19.3945C28.1836 18.2487 27.4488 17.2718 26.4258 16.909V11.4844H27.3047C27.7901 11.4844 28.1836 11.0909 28.1836 10.6055C28.1836 10.1201 27.7901 9.72656 27.3047 9.72656H10.6055V2.69531H15C15.4854 2.69531 15.8789 2.3018 15.8789 1.81641C15.8789 1.33102 15.4854 0.9375 15 0.9375H0.878906C0.393516 0.9375 0 1.33102 0 1.81641C0 2.3018 0.393516 2.69531 0.878906 2.69531H5.33203V9.72656H0.878906C0.393516 9.72656 0 10.1201 0 10.6055C0 11.0909 0.393516 11.4844 0.878906 11.4844H5.33203V16.7578H4.45312C2.99924 16.7578 1.81641 17.9406 1.81641 19.3945V26.4258C1.81641 26.7339 1.87002 27.0296 1.96758 27.3047H0.878906C0.393516 27.3047 0 27.6982 0 28.1836C0 28.669 0.393516 29.0625 0.878906 29.0625H29.1211C29.6065 29.0625 30 28.669 30 28.1836C30 27.6982 29.6065 27.3047 29.1211 27.3047ZM25.5469 20.2734C25.0622 20.2734 24.668 19.8792 24.668 19.3945C24.668 18.9099 25.0622 18.5156 25.5469 18.5156C26.0315 18.5156 26.4258 18.9099 26.4258 19.3945C26.4258 19.8792 26.0315 20.2734 25.5469 20.2734ZM19.3945 27.3047H17.6367V11.4844H19.3945V27.3047ZM15.8789 11.4844V27.3047H13.9699C14.0675 27.0296 14.1211 26.7339 14.1211 26.4258V19.3945C14.1211 17.9406 12.9383 16.7578 11.4844 16.7578H10.6055V11.4844H15.8789ZM7.08984 2.69531H8.84766V16.7578H7.08984V2.69531ZM3.57422 26.4258V19.3945C3.57422 18.9099 3.9685 18.5156 4.45312 18.5156H11.4844C11.969 18.5156 12.3633 18.9099 12.3633 19.3945V26.4258C12.3633 26.9104 11.969 27.3047 11.4844 27.3047H4.45312C3.9685 27.3047 3.57422 26.9104 3.57422 26.4258Z" fill="#181818"/>
<path d="M7.96875 20.2734C6.51486 20.2734 5.33203 21.4563 5.33203 22.9102C5.33203 24.364 6.51486 25.5469 7.96875 25.5469C9.42264 25.5469 10.6055 24.364 10.6055 22.9102C10.6055 21.4563 9.42264 20.2734 7.96875 20.2734ZM7.96875 23.7891C7.48412 23.7891 7.08984 23.3948 7.08984 22.9102C7.08984 22.4255 7.48412 22.0312 7.96875 22.0312C8.45338 22.0312 8.84766 22.4255 8.84766 22.9102C8.84766 23.3948 8.45338 23.7891 7.96875 23.7891Z" fill="#ED6436"/>
</svg>
