<svg width="30" height="30" viewBox="0 0 30 30" fill="none" xmlns="http://www.w3.org/2000/svg">
<path d="M23.7305 7.03125C25.1844 7.03125 26.3672 5.84842 26.3672 4.39453C26.3672 3.31553 25.0662 1.26469 24.4536 0.379395C24.2895 0.141797 24.0192 0 23.7305 0C23.4417 0 23.1714 0.141797 23.0073 0.379395C22.3942 1.26545 21.0938 3.3157 21.0938 4.39453C21.0938 5.84842 22.2766 7.03125 23.7305 7.03125ZM23.7305 2.50816C24.2364 3.3607 24.6019 4.12623 24.6094 4.39523C24.609 4.87951 24.2149 5.27344 23.7305 5.27344C23.2458 5.27344 22.8516 4.87916 22.8516 4.39559C22.8587 4.12693 23.2243 3.36105 23.7305 2.50816Z" fill="#ED6436"/>
<path d="M14.9414 7.03125C16.3953 7.03125 17.5781 5.84842 17.5781 4.39453C17.5781 3.31553 16.2772 1.26469 15.6646 0.379395C15.5004 0.141797 15.2302 0 14.9414 0C14.6527 0 14.3824 0.141797 14.2182 0.379395C13.6051 1.26545 12.3047 3.3157 12.3047 4.39453C12.3047 5.84842 13.4875 7.03125 14.9414 7.03125ZM14.9414 2.50816C15.4474 3.3607 15.8128 4.12623 15.8203 4.39523C15.8199 4.87951 15.4258 5.27344 14.9414 5.27344C14.4568 5.27344 14.0625 4.87916 14.0625 4.39559C14.0696 4.12693 14.4352 3.36105 14.9414 2.50816Z" fill="#ED6436"/>
<path d="M9.66797 14.0625C10.1534 14.0625 10.5469 13.669 10.5469 13.1836C10.5469 12.6982 10.1534 12.3047 9.66797 12.3047C9.18256 12.3047 8.78906 12.6982 8.78906 13.1836C8.78906 13.669 9.18256 14.0625 9.66797 14.0625Z" fill="#ED6436"/>
<path d="M25.6055 8.78906C25.3507 8.78906 6.31061 8.78906 4.39453 8.78906C2.94064 8.78906 1.75781 7.60623 1.75781 6.15234C1.75781 5.66695 1.3643 5.27344 0.878906 5.27344C0.393516 5.27344 0 5.66695 0 6.15234C0 8.03777 1.19373 9.64922 2.86488 10.2718C2.17682 11.0477 1.75781 12.0674 1.75781 13.1836V16.6992C1.75781 18.8214 3.27012 20.5971 5.27344 21.0055V29.1211C5.27344 29.6065 5.66695 30 6.15234 30H13.1836C13.669 30 14.0625 29.6065 14.0625 29.1211V21.0938H19.4531V23.7305C19.4531 24.2159 19.8466 24.6094 20.332 24.6094C20.8174 24.6094 21.2109 24.2159 21.2109 23.7305V21.0446C24.8718 20.6381 27.7865 17.7233 28.1931 14.0625H29.1211C29.6065 14.0625 30 13.669 30 13.1836C30 10.7604 28.0286 8.78906 25.6055 8.78906ZM28.0916 12.3047H14.0625V10.5469H25.6055C26.7514 10.5469 27.7288 11.2816 28.0916 12.3047ZM12.3047 28.2422H7.03125V20.2148C7.03125 19.7295 6.63773 19.3359 6.15234 19.3359C4.69846 19.3359 3.51562 18.1531 3.51562 16.6992V13.1836C3.51562 11.7297 4.69846 10.5469 6.15234 10.5469H12.3047V28.2422ZM14.0625 19.3359V14.0625H15.9375V16.6992C15.9375 17.1846 16.331 17.5781 16.8164 17.5781C17.3018 17.5781 17.6953 17.1846 17.6953 16.6992V14.0625H19.4531V19.3359H14.0625ZM21.2109 19.2729V14.0625H22.9688V14.9414C22.9688 15.4268 23.3623 15.8203 23.8477 15.8203C24.333 15.8203 24.7266 15.4268 24.7266 14.9414V14.0625H26.4213C26.0348 16.7529 23.9013 18.8863 21.2109 19.2729Z" fill="#181818"/>
</svg>
