<svg width="30" height="30" viewBox="0 0 30 30" fill="none" xmlns="http://www.w3.org/2000/svg">
<path d="M27.3047 21.0938H24.668V9.66797C24.668 9.18258 24.2745 8.78906 23.7891 8.78906H20.5579C20.9388 7.98949 21.1523 7.09541 21.1523 6.15234C21.1523 2.75994 18.3924 0 15 0C11.6076 0 8.84766 2.75994 8.84766 6.15234C8.84766 7.09541 9.06123 7.98949 9.44209 8.78906H6.21094C5.72555 8.78906 5.33203 9.18258 5.33203 9.66797V21.0938H2.69531C2.20992 21.0938 1.81641 21.4873 1.81641 21.9727C1.81641 22.458 2.20992 22.8516 2.69531 22.8516H3.57422V29.1211C3.57422 29.6065 3.96773 30 4.45312 30C4.93852 30 5.33203 29.6065 5.33203 29.1211V26.3672H24.668V29.1211C24.668 29.6065 25.0615 30 25.5469 30C26.0323 30 26.4258 29.6065 26.4258 29.1211V22.8516H27.3047C27.7901 22.8516 28.1836 22.458 28.1836 21.9727C28.1836 21.4873 27.7901 21.0938 27.3047 21.0938ZM15 1.75781C17.4231 1.75781 19.3945 3.7292 19.3945 6.15234C19.3945 8.57549 17.4231 10.5469 15 10.5469C12.5769 10.5469 10.6055 8.57549 10.6055 6.15234C10.6055 3.7292 12.5769 1.75781 15 1.75781ZM7.08984 10.5469H10.699C11.8091 11.6336 13.3275 12.3047 15 12.3047C16.6725 12.3047 18.1909 11.6336 19.301 10.5469H22.9102V21.0938H7.08984V10.5469ZM24.668 24.6094H5.33203V22.8516H24.668V24.6094Z" fill="#181818"/>
<path d="M8.84766 13.1836C8.84766 13.669 9.24117 14.0625 9.72656 14.0625H20.2734C20.7588 14.0625 21.1523 13.669 21.1523 13.1836C21.1523 12.6982 20.7588 12.3047 20.2734 12.3047H15H9.72656C9.24117 12.3047 8.84766 12.6982 8.84766 13.1836Z" fill="#ED6436"/>
<path d="M14.3786 8.53163C14.5501 8.70331 14.7751 8.78909 15 8.78909C15.225 8.78909 15.4499 8.70331 15.6215 8.53163L17.3793 6.77382C17.7225 6.43058 17.7225 5.87411 17.3793 5.53087L15.6215 3.77306C15.2783 3.42981 14.7218 3.42981 14.3785 3.77306L12.6207 5.53087C12.2775 5.87411 12.2775 6.43058 12.6207 6.77382L14.3786 8.53163ZM15 5.63751L15.5149 6.15237L15 6.66724L14.4852 6.15237L15 5.63751Z" fill="#ED6436"/>
</svg>
