<svg width="50" height="50" viewBox="0 0 50 50" fill="none" xmlns="http://www.w3.org/2000/svg">
<g clip-path="url(#clip0_1081_116)">
<path d="M25 10.3516C27.4231 10.3516 29.3945 8.38018 29.3945 5.95703C29.3945 3.53389 27.4231 1.5625 25 1.5625C22.5769 1.5625 20.6055 3.53389 20.6055 5.95703C20.6055 8.38018 22.5769 10.3516 25 10.3516ZM25 4.49219C25.8077 4.49219 26.4648 5.14932 26.4648 5.95703C26.4648 6.76475 25.8077 7.42188 25 7.42188C24.1923 7.42188 23.5352 6.76475 23.5352 5.95703C23.5352 5.14932 24.1923 4.49219 25 4.49219Z" fill="#ED6436"/>
<path d="M16.2109 16.2109C18.6341 16.2109 20.6055 14.2396 20.6055 11.8164C20.6055 9.39326 18.6341 7.42188 16.2109 7.42188C13.7878 7.42188 11.8164 9.39326 11.8164 11.8164C11.8164 14.2396 13.7878 16.2109 16.2109 16.2109ZM16.2109 10.3516C17.0187 10.3516 17.6758 11.0087 17.6758 11.8164C17.6758 12.6241 17.0187 13.2812 16.2109 13.2812C15.4032 13.2812 14.7461 12.6241 14.7461 11.8164C14.7461 11.0087 15.4032 10.3516 16.2109 10.3516Z" fill="#ED6436"/>
<path d="M33.7891 16.2109C36.2122 16.2109 38.1836 14.2396 38.1836 11.8164C38.1836 9.39326 36.2122 7.42188 33.7891 7.42188C31.3659 7.42188 29.3945 9.39326 29.3945 11.8164C29.3945 14.2396 31.3659 16.2109 33.7891 16.2109ZM33.7891 10.3516C34.5968 10.3516 35.2539 11.0087 35.2539 11.8164C35.2539 12.6241 34.5968 13.2812 33.7891 13.2812C32.9813 13.2812 32.3242 12.6241 32.3242 11.8164C32.3242 11.0087 32.9813 10.3516 33.7891 10.3516Z" fill="#ED6436"/>
<path d="M25 13.2812C23.0657 13.2812 21.167 14.4821 19.6534 16.6628C18.4521 18.3937 17.6758 20.5162 17.6758 22.0703C17.6758 23.6926 18.5148 25.2523 19.9779 26.3496C21.3364 27.3686 23.12 27.9297 25 27.9297C26.88 27.9297 28.6636 27.3686 30.0221 26.3496C31.4851 25.2523 32.3242 23.6926 32.3242 22.0703C32.3242 20.5162 31.5479 18.3937 30.3466 16.6628C28.833 14.4821 26.9343 13.2812 25 13.2812ZM25 25C22.6179 25 20.6055 23.6584 20.6055 22.0703C20.6055 20.2285 22.8115 16.2109 25 16.2109C27.1885 16.2109 29.3945 20.2285 29.3945 22.0703C29.3945 23.6584 27.3821 25 25 25Z" fill="#ED6436"/>
<path d="M25 42.5781C25.809 42.5781 26.4648 41.9223 26.4648 41.1133C26.4648 40.3043 25.809 39.6484 25 39.6484C24.191 39.6484 23.5352 40.3043 23.5352 41.1133C23.5352 41.9223 24.191 42.5781 25 42.5781Z" fill="#ED6436"/>
<path d="M49.7933 30.3962L46.7659 25.3219C46.5706 24.9944 46.2553 24.7562 45.8871 24.6574L41.8852 23.5851C41.104 23.3757 40.3004 23.8393 40.091 24.6208L39.3978 27.2079L36.8107 26.5147C36.4355 26.4141 36.0356 26.4668 35.6991 26.661C35.3627 26.8553 35.1172 27.1752 35.0166 27.5505L34.3234 30.1376L31.7362 29.4444C31.3609 29.3439 30.9611 29.3964 30.6247 29.5907C30.2883 29.7851 30.0428 30.1049 29.9422 30.4802L29.027 33.8961L28.0533 34.4582C27.1232 34.0299 26.0896 33.7891 25.0001 33.7891C23.9107 33.7891 22.8771 34.0299 21.947 34.4584L20.9733 33.8963L20.058 30.4804C19.8486 29.699 19.0458 29.2352 18.264 29.4446L15.6769 30.1379L14.9836 27.5508C14.8831 27.1755 14.6376 26.8556 14.3011 26.6613C13.9646 26.4671 13.5647 26.4145 13.1896 26.515L10.6024 27.2082L9.90919 24.6211C9.8087 24.2458 9.56319 23.9259 9.22667 23.7317C8.89034 23.5374 8.49044 23.4848 8.11514 23.5853L4.11309 24.6576C3.74483 24.7563 3.4296 24.9946 3.23419 25.3221L0.206844 30.3964C0.00557434 30.7337 -0.0516522 31.1376 0.0476642 31.5176C0.146981 31.8976 0.394832 32.2217 0.735457 32.4172L17.7555 42.1894C18.2776 45.7194 21.3271 48.4375 25.0001 48.4375C28.6732 48.4375 31.7226 45.7194 32.2446 42.1893L49.2647 32.4171C49.6053 32.2216 49.853 31.8974 49.9524 31.5175C50.0519 31.1376 49.9944 30.7335 49.7933 30.3962ZM5.44571 27.3334L7.4585 26.7941L8.15177 29.3812C8.25225 29.7565 8.49776 30.0764 8.83429 30.2706C9.17071 30.465 9.57071 30.5176 9.94581 30.417L12.5329 29.7237L13.2262 32.3109C13.3267 32.6861 13.5722 33.0061 13.9087 33.2003C14.2452 33.3945 14.6451 33.4472 15.0202 33.3467L17.6073 32.6534L18.3006 35.2405C18.4011 35.6158 18.6466 35.9358 18.9831 36.13L19.417 36.3805C18.7847 37.1253 18.2974 37.9968 18.0018 38.9523L3.48604 30.6181L5.44571 27.3334ZM25.0001 45.5078C22.577 45.5078 20.6056 43.5364 20.6056 41.1133C20.6056 38.6902 22.577 36.7188 25.0001 36.7188C27.4232 36.7188 29.3946 38.6902 29.3946 41.1133C29.3946 43.5364 27.4232 45.5078 25.0001 45.5078ZM31.9986 38.9523C31.703 37.9968 31.2157 37.1253 30.5834 36.3805L31.0173 36.13C31.3537 35.9358 31.5992 35.6158 31.6998 35.2405L32.393 32.6534L34.9802 33.3467C35.3556 33.4474 35.7554 33.3946 36.0917 33.2003C36.4281 33.0061 36.6736 32.6861 36.7742 32.3109L37.4674 29.7237L40.0544 30.417C40.8355 30.6263 41.6392 30.1627 41.8485 29.3813L42.5418 26.7942L44.5546 27.3335L46.5142 30.6182L31.9986 38.9523Z" fill="#181818"/>
</g>
<defs>
<clipPath id="clip0_1081_116">
<rect width="50" height="50" fill="white"/>
</clipPath>
</defs>
</svg>
