<svg width="50" height="50" viewBox="0 0 50 50" fill="none" xmlns="http://www.w3.org/2000/svg">
<path d="M19.1406 14.8438H30.8594C31.6684 14.8438 32.3242 14.1879 32.3242 13.3789C32.3242 12.5699 31.6684 11.9141 30.8594 11.9141H19.1406C18.3316 11.9141 17.6758 12.5699 17.6758 13.3789C17.6758 14.1879 18.3316 14.8438 19.1406 14.8438Z" fill="#ED6436"/>
<path d="M49.9417 48.1266L44.529 29.4922H45.5078C46.3168 29.4922 46.9726 28.8363 46.9726 28.0273C46.9726 27.2184 46.3168 26.5625 45.5078 26.5625C43.4093 26.5625 41.7473 26.5625 39.6444 26.5625C40.5661 25.3375 41.1132 23.8155 41.1132 22.168C41.1132 18.969 40.2561 17.2141 39.4999 15.6657C38.7935 14.2197 38.1835 12.9709 38.1835 10.4492V1.46484C38.1835 0.655859 37.5277 0 36.7187 0H13.2812C12.4722 0 11.8164 0.655859 11.8164 1.46484V10.4492C11.8164 12.9709 11.2064 14.2197 10.5001 15.6657C9.7438 17.2141 8.88667 18.969 8.88667 22.168C8.88667 23.8155 9.43384 25.3375 10.3555 26.5625C8.25816 26.5625 6.59302 26.5625 4.49214 26.5625C3.68316 26.5625 3.0273 27.2184 3.0273 28.0273C3.0273 28.8363 3.68316 29.4922 4.49214 29.4922H5.47095L0.0581573 48.1266C-0.0703583 48.569 0.0167511 49.0462 0.293411 49.4147C0.570071 49.7832 1.00396 50 1.4648 50H48.5351C48.996 50 49.4298 49.7832 49.7065 49.4147C49.9832 49.0462 50.0704 48.569 49.9417 48.1266ZM32.3242 26.5625H29.3945V25.0977C29.3945 24.2899 30.0516 23.6328 30.8593 23.6328C31.667 23.6328 32.3242 24.2899 32.3242 25.0977V26.5625ZM26.4648 26.5625C25.4154 26.5625 24.584 26.5625 23.5351 26.5625V25.0977C23.5351 24.2899 24.1922 23.6328 25 23.6328C25.8077 23.6328 26.4648 24.2899 26.4648 25.0977V26.5625ZM20.6054 26.5625H17.6757V25.0977C17.6757 24.2899 18.3329 23.6328 19.1406 23.6328C19.9483 23.6328 20.6054 24.2899 20.6054 25.0977V26.5625ZM22.7785 29.4922L16.2109 44.8165L9.64331 29.4922H22.7785ZM25 31.746L31.5675 47.0703H18.4324L25 31.746ZM27.2214 29.4922H40.3566L33.789 44.8165L27.2214 29.4922ZM13.1327 16.9515C13.8889 15.4031 14.746 13.6481 14.746 10.4492V2.92969H35.2539V10.4492C35.2539 13.6481 36.111 15.4031 36.8672 16.9515C37.5736 18.3975 38.1835 19.6463 38.1835 22.168C38.1835 24.0776 36.9588 25.7059 35.2539 26.3105V25.0977C35.2539 22.6745 33.2825 20.7031 30.8593 20.7031C29.7346 20.7031 28.7078 21.1283 27.9296 21.8257C27.1515 21.1283 26.1247 20.7031 25 20.7031C23.8752 20.7031 22.8484 21.1283 22.0703 21.8257C21.2921 21.1283 20.2653 20.7031 19.1406 20.7031C16.7174 20.7031 14.746 22.6745 14.746 25.0977V26.3105C13.0411 25.7059 11.8164 24.0776 11.8164 22.168C11.8164 19.6463 12.4263 18.3975 13.1327 16.9515ZM7.68716 32.3651L13.9894 47.0703H3.41577L7.68716 32.3651ZM36.0105 47.0703L42.3127 32.3651L46.5841 47.0703H36.0105Z" fill="#181818"/>
<path d="M22.0703 8.98438H27.9297C28.7387 8.98438 29.3945 8.32852 29.3945 7.51953C29.3945 6.71055 28.7387 6.05469 27.9297 6.05469H22.0703C21.2613 6.05469 20.6055 6.71055 20.6055 7.51953C20.6055 8.32852 21.2613 8.98438 22.0703 8.98438Z" fill="#ED6436"/>
</svg>
